# Blender v2.76 (sub 0) OBJ File: 'base.blend'
# www.blender.org
mtllib base.mtl
v 0.000000 0.017659 -3.124906
v 0.000000 1.781461 -3.124906
v 0.499577 0.017659 -3.075702
v 0.499577 1.781461 -3.075702
v 0.979955 0.017659 -2.365820
v 0.979955 1.781461 -2.365820
v 1.422674 0.017659 -2.129182
v 1.422674 1.781461 -2.129182
v 1.810721 0.017659 -1.810721
v 1.810721 1.781461 -1.810721
v 2.129182 0.017659 -1.422674
v 2.129182 1.781461 -1.422674
v 2.365820 0.017659 -0.979955
v 2.365820 1.781461 -0.979955
v 3.034911 0.017659 -0.499577
v 3.034911 1.781461 -0.499577
v 3.084116 0.017659 -0.000000
v 3.084116 1.781461 -0.000000
v 3.034911 0.017659 0.499576
v 3.034911 1.781461 0.499576
v 2.365821 0.017659 0.979955
v 2.365821 1.781461 0.979955
v 2.129182 0.017659 1.422674
v 2.129182 1.781461 1.422674
v 1.810721 0.017659 1.810721
v 1.810721 1.781461 1.810721
v 1.422674 0.017659 2.129182
v 1.422674 1.781461 2.129182
v 0.979955 0.017659 2.365821
v 0.979955 1.781461 2.365821
v 0.499576 0.017659 3.206681
v 0.499576 1.781461 3.206681
v -0.000001 0.017659 3.255885
v -0.000001 1.781461 3.255885
v -0.499578 0.017659 3.206681
v -0.499578 1.781461 3.206681
v -0.979956 0.017659 2.365820
v -0.979956 1.781461 2.365820
v -1.422675 0.017659 2.129181
v -1.422675 1.781461 2.129181
v -1.810722 0.017659 1.810720
v -1.810722 1.781461 1.810720
v -2.129183 0.017659 1.422673
v -2.129183 1.781461 1.422673
v -2.365821 0.017659 0.979953
v -2.365821 1.781461 0.979953
v -3.049292 0.017659 0.499575
v -3.049292 1.781461 0.499575
v -3.098496 0.017659 -0.000002
v -3.098496 1.781461 -0.000002
v -3.049291 0.017659 -0.499579
v -3.049291 1.781461 -0.499579
v -2.365819 0.017659 -0.979958
v -2.365819 1.781461 -0.979958
v -2.129180 0.017659 -1.422677
v -2.129180 1.781461 -1.422677
v -1.810718 0.017659 -1.810723
v -1.810718 1.781461 -1.810723
v -1.422671 0.017659 -2.129184
v -1.422671 1.781461 -2.129184
v -0.979952 0.017659 -2.365822
v -0.979952 1.781461 -2.365822
v -0.499573 0.017659 -3.075703
v -0.499573 1.781461 -3.075703
v 0.380666 2.646346 -1.913738
v 0.000000 2.646346 -1.951231
v 0.746704 2.646346 -1.802702
v 1.084046 2.646346 -1.622389
v 1.379728 2.646346 -1.379728
v 1.622389 2.646346 -1.084046
v 1.802702 2.646346 -0.746704
v 1.913738 2.646346 -0.380666
v 1.951230 2.646346 -0.000000
v 1.913738 2.646346 0.380666
v 1.802702 2.646346 0.746703
v 1.622389 2.646346 1.084045
v 1.379728 2.646346 1.379728
v 1.084046 2.646346 1.622389
v 0.746703 2.646346 1.802702
v 0.380666 2.646346 1.913738
v -0.000001 2.646346 1.951230
v -0.380667 2.646346 1.913738
v -0.746704 2.646346 1.802701
v -1.084046 2.646346 1.622388
v -1.379729 2.646346 1.379727
v -1.622390 2.646346 1.084044
v -1.802702 2.646346 0.746702
v -1.913738 2.646346 0.380664
v -1.951230 2.646346 -0.000002
v -1.913738 2.646346 -0.380668
v -1.802701 2.646346 -0.746706
v -1.622387 2.646346 -1.084048
v -1.379726 2.646346 -1.379730
v -1.084043 2.646346 -1.622391
v -0.746701 2.646346 -1.802703
v -0.380663 2.646346 -1.913739
v 0.380666 3.596256 -1.913738
v 0.000000 3.596256 -1.951231
v 0.746704 3.596256 -1.802702
v 1.084046 3.596256 -1.622389
v 1.379728 3.596256 -1.379728
v 1.622389 3.596256 -1.084046
v 1.802702 3.596256 -0.746704
v 1.913738 3.596256 -0.380666
v 1.951230 3.596256 -0.000000
v 1.913738 3.596256 0.380666
v 1.802702 3.596256 0.746703
v 1.622389 3.596256 1.084045
v 1.379728 3.596256 1.379728
v 1.084046 3.596256 1.622389
v 0.746703 3.596256 1.802702
v 0.380666 3.596256 1.913738
v -0.000001 3.596256 1.951230
v -0.380667 3.596256 1.913738
v -0.746704 3.596256 1.802701
v -1.084046 3.596256 1.622388
v -1.379729 3.596256 1.379727
v -1.622390 3.596256 1.084044
v -1.802702 3.596256 0.746702
v -1.913738 3.596256 0.380664
v -1.951230 3.596256 -0.000002
v -1.913738 3.596256 -0.380668
v -1.802701 3.596256 -0.746706
v -1.622387 3.596256 -1.084048
v -1.379726 3.596256 -1.379730
v -1.084043 3.596256 -1.622391
v -0.746701 3.596256 -1.802703
v -0.380663 3.596256 -1.913739
v -0.004631 4.286968 0.023283
v 0.000000 4.286968 0.023739
v -0.009085 4.286968 0.021932
v -0.013189 4.286968 0.019738
v -0.016787 4.286968 0.016786
v -0.019739 4.286968 0.013188
v -0.021933 4.286968 0.009084
v -0.023284 4.286968 0.004631
v -0.023740 4.286968 -0.000001
v -0.023284 4.286968 -0.004632
v -0.021933 4.286968 -0.009086
v -0.019739 4.286968 -0.013190
v -0.016787 4.286968 -0.016788
v -0.013189 4.286968 -0.019740
v -0.009085 4.286968 -0.021934
v -0.004631 4.286968 -0.023285
v 0.000000 4.286968 -0.023741
v 0.004632 4.286968 -0.023285
v 0.009085 4.286968 -0.021934
v 0.013189 4.286968 -0.019740
v 0.016787 4.286968 -0.016787
v 0.019739 4.286968 -0.013190
v 0.021933 4.286968 -0.009086
v 0.023284 4.286968 -0.004632
v 0.023740 4.286968 -0.000001
v 0.023284 4.286968 0.004631
v 0.021933 4.286968 0.009084
v 0.019739 4.286968 0.013189
v 0.016787 4.286968 0.016786
v 0.013189 4.286968 0.019738
v 0.009085 4.286968 0.021932
v 0.004632 4.286968 0.023283
vn 0.098000 0.000000 -0.995200
vn 0.828200 0.000000 -0.560400
vn 0.471400 0.000000 -0.881900
vn 0.634400 0.000000 -0.773000
vn 0.773000 0.000000 -0.634400
vn 0.881900 0.000000 -0.471400
vn 0.583200 0.000000 -0.812300
vn 0.995200 0.000000 -0.098000
vn 0.995200 0.000000 0.098000
vn 0.583200 0.000000 0.812300
vn 0.881900 0.000000 0.471400
vn 0.773000 0.000000 0.634400
vn 0.634400 0.000000 0.773000
vn 0.471400 0.000000 0.881900
vn 0.868300 0.000000 0.496100
vn 0.098000 0.000000 0.995200
vn -0.098000 0.000000 0.995200
vn -0.868300 0.000000 0.496100
vn -0.471400 0.000000 0.881900
vn -0.634400 0.000000 0.773000
vn -0.773000 0.000000 0.634400
vn -0.881900 0.000000 0.471400
vn -0.575000 0.000000 0.818100
vn -0.995200 0.000000 0.098000
vn -0.995200 0.000000 -0.098000
vn -0.575000 0.000000 -0.818100
vn -0.881900 0.000000 -0.471400
vn -0.773000 0.000000 -0.634400
vn -0.634400 0.000000 -0.773000
vn -0.471400 0.000000 -0.881900
vn 0.625800 0.655000 -0.423500
vn -0.098000 0.000000 -0.995200
vn -0.828200 0.000000 -0.560400
vn 0.000000 -1.000000 0.000000
vn 0.722000 0.574200 0.385900
vn -0.519400 0.574200 0.632900
vn -0.519400 0.574200 -0.632900
vn 0.783500 0.574200 -0.237700
vn 0.054300 0.832300 0.551700
vn -0.600900 0.797100 -0.059200
vn 0.385900 0.574200 -0.722000
vn 0.632900 0.574200 0.519400
vn -0.632900 0.574200 0.519400
vn -0.385900 0.574200 -0.722000
vn 0.605700 0.793400 -0.059700
vn -0.054300 0.832300 0.551700
vn -0.434400 0.655300 -0.618000
vn 0.519400 0.574200 -0.632900
vn 0.519400 0.574200 0.632900
vn -0.722000 0.574200 0.385900
vn -0.237700 0.574200 -0.783500
vn 0.605700 0.793400 0.059700
vn -0.658000 0.652400 0.375900
vn -0.722000 0.574200 -0.385900
vn 0.632900 0.574200 -0.519400
vn 0.385900 0.574200 0.722000
vn -0.783500 0.574200 0.237700
vn 0.058300 0.803700 -0.592200
vn -0.058300 0.803700 -0.592200
vn 0.440500 0.655400 0.613500
vn -0.385900 0.574200 0.722000
vn -0.632900 0.574200 -0.519400
vn 0.722000 0.574200 -0.385900
vn 0.237700 0.574200 0.783500
vn -0.600900 0.797100 0.059200
vn -0.210300 0.943400 0.256300
vn -0.290300 0.000000 -0.956900
vn -0.290300 0.000000 0.956900
vn 0.956900 0.000000 -0.290300
vn -0.956900 0.000000 0.290300
vn 0.956900 0.000000 0.290300
vn -0.956900 0.000000 -0.290300
vn 0.290300 0.000000 0.956900
vn 0.290300 0.000000 -0.956900
vn 0.000000 1.000000 0.000000
vn 0.317300 0.943400 -0.096200
vn -0.256300 0.943400 0.210300
vn 0.330000 0.943400 -0.032500
vn -0.292400 0.943400 0.156300
vn 0.330000 0.943400 0.032500
vn -0.317300 0.943400 0.096200
vn 0.317300 0.943400 0.096200
vn -0.330000 0.943400 0.032500
vn 0.292400 0.943400 0.156300
vn -0.330000 0.943400 -0.032500
vn 0.256300 0.943400 0.210300
vn -0.317300 0.943400 -0.096200
vn 0.210300 0.943400 0.256300
vn -0.292400 0.943400 -0.156300
vn 0.156300 0.943400 0.292400
vn 0.032500 0.943400 -0.330000
vn -0.256300 0.943400 -0.210300
vn 0.096200 0.943400 0.317300
vn 0.096200 0.943400 -0.317300
vn -0.210300 0.943400 -0.256300
vn 0.032500 0.943400 0.330000
vn 0.156300 0.943400 -0.292400
vn -0.156300 0.943400 -0.292400
vn -0.032500 0.943400 0.330000
vn 0.210300 0.943400 -0.256300
vn -0.096200 0.943400 -0.317300
vn -0.096200 0.943400 0.317300
vn 0.256300 0.943400 -0.210300
vn -0.032500 0.943400 -0.330000
vn -0.156300 0.943400 0.292400
vn 0.292400 0.943400 -0.156300
vn 0.237700 0.574200 -0.783500
vn 0.440500 0.655400 -0.613500
vn -0.783500 0.574200 -0.237700
vn -0.625800 0.655000 -0.423500
vn -0.237700 0.574200 0.783500
vn -0.434400 0.655300 0.618000
vn 0.783500 0.574200 0.237700
vn 0.658000 0.652400 0.375900
vn 0.210300 -0.943400 -0.256300
vn 0.000000 1.000000 0.000900
vn 0.000000 1.000000 -0.000600
vn 0.000000 1.000000 0.000400
vn 0.000000 1.000000 0.000100
vn 0.000000 1.000000 -0.000200
vn 0.000000 1.000000 -0.000900
vn 0.000000 1.000000 -0.000400
vn 0.000000 1.000000 -0.000100
vn 0.000000 1.000000 0.000500
vn 0.000000 1.000000 0.000200
vn -0.317300 -0.943400 0.096200
vn 0.256300 -0.943500 -0.210200
vn -0.330000 -0.943400 0.032600
vn 0.292400 -0.943400 -0.156400
vn -0.329900 -0.943400 -0.032600
vn 0.317300 -0.943400 -0.096300
vn -0.317300 -0.943400 -0.096200
vn 0.330000 -0.943400 -0.032500
vn -0.292400 -0.943400 -0.156400
vn 0.330000 -0.943400 0.032500
vn -0.256300 -0.943400 -0.210300
vn 0.317300 -0.943400 0.096200
vn -0.210300 -0.943400 -0.256400
vn 0.292400 -0.943400 0.156400
vn -0.156300 -0.943400 -0.292500
vn -0.032500 -0.943400 0.330000
vn 0.256300 -0.943400 0.210300
vn -0.096200 -0.943400 -0.317300
vn -0.096200 -0.943400 0.317300
vn 0.210300 -0.943400 0.256200
vn -0.032500 -0.943400 -0.330000
vn -0.156300 -0.943500 0.292300
vn 0.156300 -0.943400 0.292400
vn 0.032500 -0.943400 -0.329900
vn -0.210300 -0.943400 0.256300
vn 0.096200 -0.943400 0.317300
vn 0.096200 -0.943400 -0.317300
vn -0.256300 -0.943500 0.210200
vn 0.032500 -0.943400 0.330000
vn 0.156300 -0.943500 -0.292300
vn -0.292400 -0.943400 0.156400
usemtl None
s off
f 2//1 4//1 3//1
f 4//2 6//2 5//2
f 6//3 8//3 7//3
f 8//4 10//4 9//4
f 10//5 12//5 11//5
f 12//6 14//6 13//6
f 14//7 16//7 15//7
f 16//8 18//8 17//8
f 18//9 20//9 19//9
f 20//10 22//10 21//10
f 22//11 24//11 23//11
f 24//12 26//12 25//12
f 26//13 28//13 27//13
f 28//14 30//14 29//14
f 30//15 32//15 31//15
f 32//16 34//16 33//16
f 34//17 36//17 35//17
f 36//18 38//18 37//18
f 38//19 40//19 39//19
f 40//20 42//20 41//20
f 42//21 44//21 43//21
f 44//22 46//22 45//22
f 46//23 48//23 47//23
f 48//24 50//24 49//24
f 50//25 52//25 51//25
f 52//26 54//26 53//26
f 54//27 56//27 55//27
f 56//28 58//28 57//28
f 58//29 60//29 59//29
f 60//30 62//30 61//30
f 6//31 4//31 65//31
f 64//32 2//32 1//32
f 62//33 64//33 63//33
f 5//34 37//34 45//34
f 81//17 113//17 114//17
f 22//35 75//35 76//35
f 42//36 40//36 84//36
f 58//37 93//37 94//37
f 14//38 71//38 72//38
f 32//39 80//39 81//39
f 52//40 50//40 89//40
f 6//41 67//41 68//41
f 26//42 24//42 76//42
f 44//43 42//43 85//43
f 62//44 60//44 94//44
f 16//45 72//45 73//45
f 36//46 34//46 81//46
f 54//47 52//47 90//47
f 8//48 68//48 69//48
f 26//49 77//49 78//49
f 46//50 44//50 86//50
f 62//51 95//51 96//51
f 20//52 18//52 73//52
f 38//53 36//53 82//53
f 54//54 91//54 92//54
f 12//55 10//55 69//55
f 28//56 78//56 79//56
f 46//57 87//57 88//57
f 4//58 2//58 66//58
f 64//59 96//59 66//59
f 22//60 20//60 74//60
f 38//61 83//61 84//61
f 58//62 56//62 92//62
f 12//63 70//63 71//63
f 30//64 79//64 80//64
f 48//65 88//65 89//65
f 117//66 116//66 148//66
f 68//4 100//4 101//4
f 95//67 127//67 128//67
f 82//68 114//68 115//68
f 69//5 101//5 102//5
f 96//32 128//32 98//32
f 83//19 115//19 116//19
f 70//6 102//6 103//6
f 84//20 116//20 117//20
f 71//69 103//69 104//69
f 85//21 117//21 118//21
f 72//8 104//8 105//8
f 86//22 118//22 119//22
f 73//9 105//9 106//9
f 87//70 119//70 120//70
f 74//71 106//71 107//71
f 88//24 120//24 121//24
f 75//11 107//11 108//11
f 89//25 121//25 122//25
f 76//12 108//12 109//12
f 90//72 122//72 123//72
f 77//13 109//13 110//13
f 91//27 123//27 124//27
f 78//14 110//14 111//14
f 66//1 98//1 97//1
f 92//28 124//28 125//28
f 79//73 111//73 112//73
f 65//74 97//74 99//74
f 93//29 125//29 126//29
f 80//16 112//16 113//16
f 67//3 99//3 100//3
f 94//30 126//30 127//30
f 147//75 139//75 155//75
f 104//76 103//76 135//76
f 118//77 117//77 149//77
f 105//78 104//78 136//78
f 119//79 118//79 150//79
f 106//80 105//80 137//80
f 120//81 119//81 151//81
f 107//82 106//82 138//82
f 121//83 120//83 152//83
f 108//84 107//84 139//84
f 122//85 121//85 153//85
f 109//86 108//86 140//86
f 123//87 122//87 154//87
f 110//88 109//88 141//88
f 124//89 123//89 155//89
f 111//90 110//90 142//90
f 97//91 98//91 130//91
f 125//92 124//92 156//92
f 112//93 111//93 143//93
f 99//94 97//94 129//94
f 126//95 125//95 157//95
f 113//96 112//96 144//96
f 100//97 99//97 131//97
f 127//98 126//98 158//98
f 114//99 113//99 145//99
f 101//100 100//100 132//100
f 128//101 127//101 159//101
f 115//102 114//102 146//102
f 102//103 101//103 133//103
f 98//104 128//104 160//104
f 116//105 115//105 147//105
f 103//106 102//106 134//106
f 1//1 2//1 3//1
f 3//2 4//2 5//2
f 5//3 6//3 7//3
f 7//4 8//4 9//4
f 9//5 10//5 11//5
f 11//6 12//6 13//6
f 13//7 14//7 15//7
f 15//8 16//8 17//8
f 17//9 18//9 19//9
f 19//10 20//10 21//10
f 21//11 22//11 23//11
f 23//12 24//12 25//12
f 25//13 26//13 27//13
f 27//14 28//14 29//14
f 29//15 30//15 31//15
f 31//16 32//16 33//16
f 33//17 34//17 35//17
f 35//18 36//18 37//18
f 37//19 38//19 39//19
f 39//20 40//20 41//20
f 41//21 42//21 43//21
f 43//22 44//22 45//22
f 45//23 46//23 47//23
f 47//24 48//24 49//24
f 49//25 50//25 51//25
f 51//26 52//26 53//26
f 53//27 54//27 55//27
f 55//28 56//28 57//28
f 57//29 58//29 59//29
f 59//30 60//30 61//30
f 67//107 6//107 65//107
f 63//32 64//32 1//32
f 61//33 62//33 63//33
f 63//34 1//34 61//34
f 5//34 7//34 11//34
f 1//34 3//34 5//34
f 57//34 59//34 61//34
f 61//34 1//34 5//34
f 7//34 9//34 11//34
f 13//34 15//34 17//34
f 5//34 11//34 13//34
f 57//34 61//34 5//34
f 53//34 55//34 5//34
f 49//34 51//34 53//34
f 45//34 47//34 49//34
f 41//34 43//34 37//34
f 37//34 39//34 41//34
f 33//34 35//34 37//34
f 29//34 31//34 33//34
f 25//34 27//34 21//34
f 21//34 23//34 25//34
f 17//34 19//34 21//34
f 5//34 13//34 21//34
f 55//34 57//34 5//34
f 45//34 49//34 53//34
f 37//34 43//34 45//34
f 29//34 33//34 37//34
f 21//34 27//34 29//34
f 13//34 17//34 21//34
f 45//34 53//34 5//34
f 29//34 37//34 5//34
f 5//34 21//34 29//34
f 82//17 81//17 114//17
f 24//35 22//35 76//35
f 85//36 42//36 84//36
f 60//37 58//37 94//37
f 16//108 14//108 72//108
f 34//39 32//39 81//39
f 90//40 52//40 89//40
f 8//41 6//41 68//41
f 77//42 26//42 76//42
f 86//43 44//43 85//43
f 95//44 62//44 94//44
f 18//45 16//45 73//45
f 82//46 36//46 81//46
f 91//109 54//109 90//109
f 10//48 8//48 69//48
f 28//49 26//49 78//49
f 87//50 46//50 86//50
f 64//110 62//110 96//110
f 74//52 20//52 73//52
f 83//111 38//111 82//111
f 56//54 54//54 92//54
f 70//55 12//55 69//55
f 30//56 28//56 79//56
f 48//112 46//112 88//112
f 65//58 4//58 66//58
f 2//59 64//59 66//59
f 75//113 22//113 74//113
f 40//61 38//61 84//61
f 93//62 58//62 92//62
f 14//63 12//63 71//63
f 32//114 30//114 80//114
f 50//65 48//65 89//65
f 149//115 117//115 148//115
f 69//4 68//4 101//4
f 96//67 95//67 128//67
f 83//68 82//68 115//68
f 70//5 69//5 102//5
f 66//32 96//32 98//32
f 84//19 83//19 116//19
f 71//6 70//6 103//6
f 85//20 84//20 117//20
f 72//69 71//69 104//69
f 86//21 85//21 118//21
f 73//8 72//8 105//8
f 87//22 86//22 119//22
f 74//9 73//9 106//9
f 88//70 87//70 120//70
f 75//71 74//71 107//71
f 89//24 88//24 121//24
f 76//11 75//11 108//11
f 90//25 89//25 122//25
f 77//12 76//12 109//12
f 91//72 90//72 123//72
f 78//13 77//13 110//13
f 92//27 91//27 124//27
f 79//14 78//14 111//14
f 65//1 66//1 97//1
f 93//28 92//28 125//28
f 80//73 79//73 112//73
f 67//74 65//74 99//74
f 94//29 93//29 126//29
f 81//16 80//16 113//16
f 68//3 67//3 100//3
f 95//30 94//30 127//30
f 131//116 129//116 130//116
f 130//117 160//117 131//117
f 159//75 158//75 157//75
f 157//118 156//118 155//118
f 155//119 154//119 153//119
f 153//120 152//120 151//120
f 151//75 150//75 149//75
f 149//75 148//75 147//75
f 147//121 146//121 145//121
f 145//116 144//116 143//116
f 143//122 142//122 141//122
f 141//75 140//75 143//75
f 139//123 138//123 137//123
f 137//119 136//119 139//119
f 135//75 134//75 133//75
f 133//75 132//75 131//75
f 131//124 160//124 159//124
f 159//75 157//75 131//75
f 155//119 153//119 147//119
f 151//75 149//75 147//75
f 147//123 145//123 139//123
f 143//125 140//125 139//125
f 139//75 136//75 135//75
f 135//75 133//75 131//75
f 131//75 157//75 155//75
f 153//123 151//123 147//123
f 145//75 143//75 139//75
f 139//75 135//75 131//75
f 131//75 155//75 139//75
f 136//126 104//126 135//126
f 150//127 118//127 149//127
f 137//128 105//128 136//128
f 151//129 119//129 150//129
f 138//130 106//130 137//130
f 152//131 120//131 151//131
f 139//132 107//132 138//132
f 153//133 121//133 152//133
f 140//134 108//134 139//134
f 154//135 122//135 153//135
f 141//136 109//136 140//136
f 155//137 123//137 154//137
f 142//138 110//138 141//138
f 156//139 124//139 155//139
f 143//140 111//140 142//140
f 129//141 97//141 130//141
f 157//142 125//142 156//142
f 144//143 112//143 143//143
f 131//144 99//144 129//144
f 158//145 126//145 157//145
f 145//146 113//146 144//146
f 132//147 100//147 131//147
f 159//148 127//148 158//148
f 146//149 114//149 145//149
f 133//150 101//150 132//150
f 160//151 128//151 159//151
f 147//152 115//152 146//152
f 134//153 102//153 133//153
f 130//154 98//154 160//154
f 148//155 116//155 147//155
f 135//156 103//156 134//156
v 0.000000 0.000000 -1.500000
v -0.292636 0.000000 -1.471178
v -0.574025 0.000000 -1.385819
v -0.833355 0.000000 -1.247204
v -1.060660 0.000000 -1.060660
v -1.247205 0.000000 -0.833355
v -1.385819 0.000000 -0.574025
v -1.471178 0.000000 -0.292636
v -1.500000 0.000000 -0.000000
v -1.471178 0.000000 0.292635
v -1.385819 0.000000 0.574025
v -1.247205 0.000000 0.833355
v -1.060660 0.000000 1.060660
v -0.833355 0.000000 1.247205
v -0.574025 0.000000 1.385819
v -0.292635 0.000000 1.471178
v 0.000000 0.000000 1.500000
v 0.292636 0.000000 1.471178
v 0.574026 0.000000 1.385819
v 0.833356 0.000000 1.247204
v 1.060661 0.000000 1.060660
v 1.247205 0.000000 0.833354
v 1.385820 0.000000 0.574024
v 1.471178 0.000000 0.292634
v 1.500000 0.000000 -0.000001
v 1.471178 0.000000 -0.292637
v 1.385819 0.000000 -0.574027
v 1.247203 0.000000 -0.833357
v 1.060659 0.000000 -1.060662
v 0.833354 0.000000 -1.247205
v 0.574023 0.000000 -1.385820
v 0.292633 0.000000 -1.471178
l 162 161
l 163 162
l 164 163
l 165 164
l 166 165
l 167 166
l 168 167
l 169 168
l 170 169
l 171 170
l 172 171
l 173 172
l 174 173
l 175 174
l 176 175
l 177 176
l 178 177
l 179 178
l 180 179
l 181 180
l 182 181
l 183 182
l 184 183
l 185 184
l 186 185
l 187 186
l 188 187
l 189 188
l 190 189
l 191 190
l 192 191
l 161 192
