# Blender v2.76 (sub 0) OBJ File: 'builder.blend'
# www.blender.org
mtllib builder.mtl
v -1.125035 0.303296 -0.872327
v -1.054052 0.303296 -1.011254
v -1.067740 0.126960 -0.872327
v -1.010314 0.168683 -1.011254
v -0.917740 0.017979 -0.872327
v -0.895805 0.085488 -1.011254
v 0.653620 0.017979 -0.872327
v 0.631685 0.085488 -1.011254
v 0.803620 0.126960 -0.872327
v 0.746194 0.168683 -1.011254
v 0.860915 0.303296 -0.872327
v 0.789932 0.303296 -1.011254
v 0.803620 0.479632 -0.872327
v 0.746194 0.437909 -1.011254
v 0.653620 0.588613 -0.872327
v 0.631685 0.521104 -1.011254
v -0.917740 0.588613 -0.872327
v -0.895805 0.521104 -1.011254
v -1.067740 0.479631 -0.872327
v -1.010314 0.437909 -1.011254
v -1.067740 0.126960 -1.072327
v -1.125035 0.303296 -1.072327
v -0.917740 0.017979 -1.072327
v 0.653620 0.017979 -1.072327
v 0.803620 0.126960 -1.072327
v 0.860915 0.303296 -1.072327
v 0.803620 0.479632 -1.072327
v 0.653620 0.588613 -1.072327
v -0.917740 0.588613 -1.072327
v -1.067740 0.479631 -1.072327
vn -0.951100 -0.309000 0.000000
vn -0.587800 -0.809000 0.000000
vn 0.000000 -1.000000 0.000000
vn 0.587800 -0.809000 0.000000
vn 0.951100 -0.309000 0.000000
vn 0.951100 0.309000 0.000000
vn 0.587800 0.809000 0.000000
vn 0.000000 1.000000 0.000000
vn -0.000000 0.000000 -1.000000
vn -0.951100 0.309000 0.000000
vn -0.587800 0.809000 0.000000
vn 0.000000 0.000000 1.000000
vn 0.638000 0.207300 -0.741600
vn 0.394300 0.542700 -0.741600
vn -0.000000 0.670900 -0.741600
vn -0.394300 0.542700 -0.741600
vn -0.638000 0.207300 -0.741600
vn -0.638000 -0.207300 -0.741600
vn -0.394300 -0.542700 -0.741600
vn 0.000000 -0.670900 -0.741600
vn 0.394300 -0.542700 -0.741600
vn 0.638000 -0.207300 -0.741600
usemtl None
s off
f 22//1 21//1 3//1
f 21//2 23//2 5//2
f 23//3 24//3 7//3
f 24//4 25//4 9//4
f 25//5 26//5 11//5
f 26//6 27//6 13//6
f 27//7 28//7 15//7
f 28//8 29//8 17//8
f 18//9 8//9 6//9
f 30//10 22//10 1//10
f 17//11 29//11 30//11
f 7//12 17//12 5//12
f 4//13 21//13 22//13
f 6//14 23//14 21//14
f 8//15 24//15 23//15
f 8//16 10//16 25//16
f 10//17 12//17 26//17
f 12//18 14//18 27//18
f 14//19 16//19 28//19
f 18//20 29//20 28//20
f 20//21 30//21 29//21
f 20//22 2//22 22//22
f 1//1 22//1 3//1
f 3//2 21//2 5//2
f 5//3 23//3 7//3
f 7//4 24//4 9//4
f 9//5 25//5 11//5
f 11//6 26//6 13//6
f 13//7 27//7 15//7
f 15//8 28//8 17//8
f 6//9 4//9 2//9
f 2//9 20//9 6//9
f 18//9 16//9 8//9
f 14//9 12//9 10//9
f 10//9 8//9 16//9
f 6//9 20//9 18//9
f 16//9 14//9 10//9
f 19//10 30//10 1//10
f 19//11 17//11 30//11
f 19//12 1//12 3//12
f 3//12 5//12 19//12
f 7//12 9//12 15//12
f 11//12 13//12 15//12
f 15//12 17//12 7//12
f 19//12 5//12 17//12
f 9//12 11//12 15//12
f 2//13 4//13 22//13
f 4//14 6//14 21//14
f 6//15 8//15 23//15
f 24//16 8//16 25//16
f 25//17 10//17 26//17
f 26//18 12//18 27//18
f 27//19 14//19 28//19
f 16//20 18//20 28//20
f 18//21 20//21 29//21
f 30//22 20//22 22//22
v 0.000000 0.000000 -1.000000
v -0.195090 0.000000 -0.980785
v -0.382683 0.000000 -0.923880
v -0.555570 0.000000 -0.831470
v -0.707107 0.000000 -0.707107
v -0.831470 0.000000 -0.555570
v -0.923880 0.000000 -0.382683
v -0.980785 0.000000 -0.195090
v -1.000000 0.000000 -0.000000
v -0.980785 0.000000 0.195090
v -0.923880 0.000000 0.382683
v -0.831470 0.000000 0.555570
v -0.707107 0.000000 0.707107
v -0.555570 0.000000 0.831470
v -0.382683 0.000000 0.923880
v -0.195090 0.000000 0.980785
v 0.000000 0.000000 1.000000
v 0.195091 0.000000 0.980785
v 0.382684 0.000000 0.923879
v 0.555571 0.000000 0.831469
v 0.707107 0.000000 0.707106
v 0.831470 0.000000 0.555570
v 0.923880 0.000000 0.382683
v 0.980785 0.000000 0.195089
v 1.000000 0.000000 -0.000001
v 0.980785 0.000000 -0.195091
v 0.923879 0.000000 -0.382684
v 0.831469 0.000000 -0.555571
v 0.707106 0.000000 -0.707108
v 0.555569 0.000000 -0.831470
v 0.382682 0.000000 -0.923880
v 0.195089 0.000000 -0.980786
l 32 31
l 33 32
l 34 33
l 35 34
l 36 35
l 37 36
l 38 37
l 39 38
l 40 39
l 41 40
l 42 41
l 43 42
l 44 43
l 45 44
l 46 45
l 47 46
l 48 47
l 49 48
l 50 49
l 51 50
l 52 51
l 53 52
l 54 53
l 55 54
l 56 55
l 57 56
l 58 57
l 59 58
l 60 59
l 61 60
l 62 61
l 31 62
v 0.755683 0.136209 -0.755683
v 0.755683 0.136209 0.755683
v -1.644019 0.421579 0.536111
v -1.644019 0.421579 -0.536111
v 1.000000 0.853880 -0.999999
v 0.999999 0.853880 1.000001
v -1.375662 0.961474 0.859029
v -1.375662 0.961474 -0.859029
v 0.861499 1.408573 -0.861498
v 0.861498 1.408573 0.861499
v -1.290891 1.300979 -0.774258
v -1.290891 1.300979 0.774258
v -1.694038 0.568509 0.586130
v -1.694038 0.568509 -0.586130
v -0.861499 1.408573 0.861498
v -0.861498 1.408573 -0.861498
v -0.755683 0.136209 0.755683
v -0.755683 0.136209 -0.755684
v -1.000000 0.853880 1.000000
v -1.000000 0.853880 -1.000000
vn 0.000000 -1.000000 0.000000
vn -0.970200 0.242300 -0.000000
vn 0.946600 -0.322300 0.000000
vn -0.000000 -0.322300 0.946600
vn -0.946600 -0.322300 -0.000000
vn 0.000000 -0.322300 -0.946600
vn 0.000000 1.000000 0.000000
vn 0.000000 0.242300 -0.970200
vn -0.000000 0.242300 0.970200
vn 0.970200 0.242300 0.000000
vn -0.275300 -0.961300 -0.000000
vn -0.243100 0.970000 0.000000
vn -0.260600 0.294600 0.919400
vn -0.260600 0.294600 -0.919400
vn -0.305800 -0.952100 -0.000000
vn -0.339800 -0.404700 0.849000
vn -0.339800 -0.404700 -0.849000
vn -0.380300 0.924900 -0.000000
usemtl Material
s off
f 64//23 79//23 80//23
f 69//24 74//24 73//24
f 67//25 68//25 64//25
f 68//26 81//26 79//26
f 75//27 76//27 66//27
f 63//28 80//28 82//28
f 78//29 77//29 72//29
f 82//30 78//30 71//30
f 81//31 68//31 72//31
f 67//32 71//32 72//32
f 70//33 82//33 81//33
f 73//34 74//34 77//34
f 74//35 69//35 81//35
f 73//36 78//36 82//36
f 66//37 80//37 79//37
f 65//38 79//38 81//38
f 66//39 76//39 82//39
f 75//40 81//40 82//40
f 63//23 64//23 80//23
f 70//24 69//24 73//24
f 63//25 67//25 64//25
f 64//26 68//26 79//26
f 65//27 75//27 66//27
f 67//28 63//28 82//28
f 71//29 78//29 72//29
f 67//30 82//30 71//30
f 77//31 81//31 72//31
f 68//32 67//32 72//32
f 69//33 70//33 81//33
f 78//34 73//34 77//34
f 77//35 74//35 81//35
f 70//36 73//36 82//36
f 65//37 66//37 79//37
f 75//38 65//38 81//38
f 80//39 66//39 82//39
f 76//40 75//40 82//40
v -1.043972 0.303296 0.986235
v -1.125035 0.303296 0.865880
v -1.002159 0.174608 0.986235
v -1.067740 0.126960 0.865880
v -0.892691 0.095074 0.986235
v -0.917740 0.017979 0.865880
v 0.628570 0.095074 0.986235
v 0.653620 0.017979 0.865880
v 0.738039 0.174608 0.986235
v 0.803620 0.126960 0.865879
v 0.779852 0.303296 0.986235
v 0.860915 0.303296 0.865879
v 0.738039 0.431984 0.986235
v 0.803620 0.479632 0.865879
v 0.628570 0.511518 0.986235
v 0.653620 0.588613 0.865879
v -0.892691 0.511518 0.986235
v -0.917740 0.588613 0.865879
v -1.002159 0.431984 0.986235
v -1.067740 0.479631 0.865880
v -1.125035 0.303296 1.065879
v -1.067740 0.126960 1.065880
v -0.917740 0.017979 1.065879
v 0.653620 0.017979 1.065879
v 0.803620 0.126960 1.065879
v 0.860915 0.303296 1.065879
v 0.803620 0.479632 1.065879
v 0.653620 0.588613 1.065879
v -0.917740 0.588613 1.065879
v -1.067740 0.479631 1.065879
vn -0.951100 -0.309000 0.000000
vn -0.587800 -0.809000 0.000000
vn 0.000000 -1.000000 0.000000
vn 0.587800 -0.809000 0.000000
vn 0.951100 -0.309000 0.000000
vn 0.951100 0.309000 0.000000
vn 0.587800 0.809000 0.000000
vn 0.000000 1.000000 0.000000
vn 0.000000 -0.000000 -1.000000
vn -0.951100 0.309000 0.000000
vn -0.587800 0.809000 0.000000
vn 0.000000 0.000000 1.000000
vn 0.683300 0.222000 0.695500
vn 0.422300 0.581300 0.695500
vn -0.000000 0.718500 0.695500
vn -0.422300 0.581300 0.695500
vn -0.683300 0.222000 0.695500
vn -0.683300 -0.222000 0.695500
vn -0.422300 -0.581300 0.695500
vn 0.000000 -0.718500 0.695500
vn 0.422300 -0.581300 0.695500
vn 0.683300 -0.222000 0.695500
usemtl None
s off
f 84//41 86//41 104//41
f 86//42 88//42 105//42
f 88//43 90//43 106//43
f 90//44 92//44 107//44
f 92//45 94//45 108//45
f 94//46 96//46 109//46
f 96//47 98//47 110//47
f 98//48 100//48 111//48
f 100//49 90//49 88//49
f 102//50 84//50 103//50
f 111//51 100//51 102//51
f 89//52 99//52 87//52
f 83//53 103//53 104//53
f 85//54 104//54 105//54
f 87//55 105//55 106//55
f 91//56 89//56 106//56
f 91//57 107//57 108//57
f 93//58 108//58 109//58
f 95//59 109//59 110//59
f 97//60 110//60 111//60
f 99//61 111//61 112//61
f 83//62 101//62 112//62
f 103//41 84//41 104//41
f 104//42 86//42 105//42
f 105//43 88//43 106//43
f 106//44 90//44 107//44
f 107//45 92//45 108//45
f 108//46 94//46 109//46
f 109//47 96//47 110//47
f 110//48 98//48 111//48
f 88//49 86//49 84//49
f 84//49 102//49 88//49
f 100//49 98//49 90//49
f 96//49 94//49 92//49
f 92//49 90//49 98//49
f 88//49 102//49 100//49
f 98//49 96//49 92//49
f 112//50 102//50 103//50
f 112//51 111//51 102//51
f 101//52 83//52 85//52
f 85//52 87//52 101//52
f 89//52 91//52 93//52
f 93//52 95//52 97//52
f 97//52 99//52 89//52
f 101//52 87//52 99//52
f 89//52 93//52 97//52
f 85//53 83//53 104//53
f 87//54 85//54 105//54
f 89//55 87//55 106//55
f 107//56 91//56 106//56
f 93//57 91//57 108//57
f 95//58 93//58 109//58
f 97//59 95//59 110//59
f 99//60 97//60 111//60
f 101//61 99//61 112//61
f 103//62 83//62 112//62
