# Blender v2.76 (sub 0) OBJ File: ''
# www.blender.org
mtllib house.mtl
o Cube
v 1.000000 -1.000000 -1.000000
v 1.000000 -1.000000 1.000000
v -1.000000 -1.000000 1.000000
v -1.000000 -1.000000 -1.000000
v 1.000000 1.000000 -0.999999
v 0.999999 1.000000 1.000001
v -1.000000 1.000000 1.000000
v -1.000000 1.000000 -1.000000
v 0.925191 1.868767 -0.024199
v 0.000000 1.000000 -1.000000
v -0.000001 1.000000 1.000000
v -1.074809 1.868767 -0.024199
v -0.074809 1.868767 -0.024199
vn 0.000000 -1.000000 0.000000
vn -0.000000 0.762600 0.646900
vn 1.000000 0.000000 0.000000
vn -0.000000 0.000000 1.000000
vn -1.000000 -0.000000 -0.000000
vn 0.000000 0.000000 -1.000000
vn 0.000000 0.746900 -0.665000
vn 0.996300 0.085800 0.000000
vn -0.996300 -0.085800 -0.000000
usemtl Material
s off
f 2//1 3//1 4//1
f 13//2 12//2 7//2
f 5//3 6//3 2//3
f 11//4 7//4 3//4
f 7//5 8//5 4//5
f 4//6 8//6 10//6
f 9//2 13//2 11//2
f 10//7 13//7 9//7
f 8//7 12//7 13//7
f 1//1 2//1 4//1
f 11//2 13//2 7//2
f 2//3 1//3 5//3
f 5//8 9//8 6//8
f 3//4 2//4 11//4
f 6//4 11//4 2//4
f 4//5 3//5 7//5
f 7//9 12//9 8//9
f 10//6 5//6 1//6
f 1//6 4//6 10//6
f 6//2 9//2 11//2
f 5//7 10//7 9//7
f 10//7 8//7 13//7
