# Blender v2.76 (sub 0) OBJ File: 'tank.blend'
# www.blender.org
mtllib minitank.mtl
v 1.000000 0.354824 -1.610619
v 1.000000 0.000000 1.000000
v -1.000000 0.000000 1.000000
v -1.000000 0.354824 -1.610619
v 1.000000 0.708235 -1.610618
v 0.999999 0.913539 1.000001
v -1.000000 0.913539 1.000000
v -1.000000 0.708235 -1.610619
v 1.000000 0.913539 -1.174314
v -0.000001 0.913539 1.000000
v -1.000000 0.913539 -1.174315
v 1.000000 0.000000 -1.174494
v 0.000000 0.354824 -1.610619
v -1.000000 0.000000 -1.174495
v -0.062659 0.915488 -0.492513
v -0.062659 1.215488 -0.492513
v 0.216175 0.915488 -0.423787
v 0.216175 1.215488 -0.423787
v 0.431131 0.915488 -0.233352
v 0.431131 1.215488 -0.233352
v 0.532966 0.915488 0.035165
v 0.532966 1.215488 0.035165
v 0.498351 0.915488 0.320250
v 0.498351 1.215488 0.320250
v 0.335214 0.915488 0.556593
v 0.335214 1.215488 0.556593
v 0.080930 0.915488 0.690052
v 0.080930 1.215488 0.690052
v -0.206249 0.915488 0.690052
v -0.206249 1.215488 0.690052
v -0.460533 0.915488 0.556593
v -0.460533 1.215488 0.556593
v -0.623669 0.915488 0.320250
v -0.623669 1.215488 0.320250
v -0.658285 0.915488 0.035165
v -0.658285 1.215488 0.035165
v -0.556449 0.915488 -0.233352
v -0.556449 1.215488 -0.233352
v -0.341493 0.915488 -0.423787
v -0.341493 1.215488 -0.423787
v 0.997452 0.295385 -1.044969
v 1.297452 0.295385 -1.044969
v 0.997452 0.155968 -1.010605
v 1.297452 0.155968 -1.010605
v 0.997452 0.048489 -0.915388
v 1.297452 0.048489 -0.915388
v 0.997452 -0.002428 -0.781130
v 1.297452 -0.002428 -0.781130
v 0.997452 0.014880 0.597962
v 1.297452 0.014880 0.597962
v 0.997452 0.096448 0.716134
v 1.297452 0.096448 0.716134
v 0.997452 0.223590 0.782863
v 1.297452 0.223590 0.782863
v 0.997452 0.367179 0.782863
v 1.297452 0.367179 0.782863
v 0.997452 0.494321 0.716134
v 1.297452 0.494321 0.716134
v 0.997452 0.575889 0.597962
v 1.297452 0.575889 0.597962
v 0.997452 0.593197 -0.781130
v 1.297452 0.593197 -0.781130
v 0.997452 0.542280 -0.915388
v 1.297452 0.542280 -0.915388
v 0.997452 0.434801 -1.010606
v 1.297452 0.434801 -1.010606
v 0.047443 1.085719 -1.829981
v 0.047443 1.085719 -0.429981
v 0.028345 1.026941 -1.829981
v 0.028345 1.026941 -0.429981
v -0.021655 0.990614 -1.829981
v -0.021655 0.990614 -0.429981
v -0.083459 0.990614 -1.829981
v -0.083459 0.990614 -0.429981
v -0.133459 1.026941 -1.829981
v -0.133459 1.026941 -0.429981
v -0.152557 1.085719 -1.829981
v -0.152557 1.085719 -0.429981
v -0.133459 1.144498 -1.829981
v -0.133459 1.144498 -0.429981
v -0.083459 1.180825 -1.829981
v -0.083459 1.180825 -0.429981
v -0.021655 1.180825 -1.829981
v -0.021655 1.180825 -0.429981
v 0.028345 1.144498 -1.829981
v 0.028345 1.144498 -0.429981
v -0.986250 0.272374 0.751135
v -1.286250 0.272374 0.751135
v -0.986250 0.132957 0.716771
v -1.286250 0.132957 0.716771
v -0.986250 0.025479 0.621554
v -1.286250 0.025479 0.621554
v -0.986250 -0.025438 0.487296
v -1.286250 -0.025438 0.487296
v -0.986249 -0.008131 -0.891796
v -1.286250 -0.008131 -0.891796
v -0.986249 0.073438 -1.009968
v -1.286250 0.073438 -1.009968
v -0.986249 0.200580 -1.076697
v -1.286250 0.200580 -1.076697
v -0.986249 0.344169 -1.076697
v -1.286250 0.344169 -1.076697
v -0.986250 0.471311 -1.009968
v -1.286250 0.471311 -1.009968
v -0.986250 0.552879 -0.891796
v -1.286250 0.552879 -0.891796
v -0.986250 0.570187 0.487296
v -1.286250 0.570187 0.487296
v -0.986250 0.519269 0.621554
v -1.286250 0.519269 0.621554
v -0.986250 0.411791 0.716772
v -1.286250 0.411791 0.716772
vn 0.000000 -0.775700 -0.631100
vn 0.000000 1.000000 0.000000
vn 1.000000 0.000000 0.000000
vn -0.000000 0.000000 1.000000
vn -1.000000 -0.000000 -0.000000
vn 0.000000 0.000000 -1.000000
vn 0.000000 0.904800 -0.425800
vn 0.000000 -1.000000 0.000000
vn 0.239300 0.000000 -0.970900
vn 0.663100 0.000000 -0.748500
vn 0.935000 0.000000 -0.354600
vn 0.992700 0.000000 0.120500
vn 0.823000 0.000000 0.568100
vn 0.464700 0.000000 0.885500
vn -0.464700 0.000000 0.885500
vn -0.823000 0.000000 0.568100
vn -0.992700 0.000000 0.120500
vn -0.935000 0.000000 -0.354600
vn -0.239300 0.000000 -0.970900
vn -0.663100 0.000000 -0.748500
vn 0.000000 -0.239300 -0.970900
vn 0.000000 -0.663100 -0.748500
vn 0.000000 -0.935000 -0.354600
vn 0.000000 -0.999900 0.012500
vn 0.000000 -0.823000 0.568100
vn 0.000000 -0.464700 0.885500
vn 0.000000 0.464700 0.885500
vn 0.000000 0.823000 0.568100
vn 0.000000 0.999900 0.012500
vn 0.000000 0.935000 -0.354600
vn 0.000000 0.239300 -0.970900
vn 0.000000 0.663100 -0.748500
vn 0.951100 -0.309000 0.000000
vn 0.587800 -0.809000 0.000000
vn -0.587800 -0.809000 -0.000000
vn -0.951100 -0.309000 0.000000
vn -0.951100 0.309000 -0.000000
vn -0.587800 0.809000 -0.000000
vn 0.951100 0.309000 0.000000
vn 0.587800 0.809000 0.000000
vn 0.000000 -0.239300 0.970900
vn 0.000000 -0.663100 0.748500
vn 0.000000 -0.935000 0.354600
vn 0.000000 -0.999900 -0.012500
vn 0.000000 -0.823000 -0.568100
vn 0.000000 -0.464700 -0.885500
vn 0.000000 0.464700 -0.885500
vn 0.000000 0.823000 -0.568100
vn 0.000000 0.999900 -0.012500
vn 0.000000 0.935000 0.354600
vn 0.000000 0.239300 0.970900
vn 0.000000 0.663100 0.748500
usemtl Material
s off
f 13//1 14//1 4//1
f 10//2 11//2 7//2
f 9//3 2//3 12//3
f 10//4 7//4 3//4
f 11//5 4//5 14//5
f 13//6 4//6 8//6
f 9//2 11//2 10//2
f 9//2 10//2 6//2
f 8//7 11//7 9//7
f 13//1 12//1 14//1
f 1//1 12//1 13//1
f 12//8 2//8 3//8
f 16//9 18//9 17//9
f 18//10 20//10 19//10
f 20//11 22//11 21//11
f 22//12 24//12 23//12
f 24//13 26//13 25//13
f 26//14 28//14 27//14
f 28//4 30//4 29//4
f 30//15 32//15 31//15
f 32//16 34//16 33//16
f 34//17 36//17 35//17
f 36//18 38//18 37//18
f 38//2 34//2 26//2
f 40//19 16//19 15//19
f 38//20 40//20 39//20
f 17//8 25//8 37//8
f 42//21 44//21 43//21
f 44//22 46//22 45//22
f 46//23 48//23 47//23
f 48//24 50//24 49//24
f 50//25 52//25 51//25
f 52//26 54//26 53//26
f 54//4 56//4 55//4
f 56//27 58//27 57//27
f 58//28 60//28 59//28
f 60//29 62//29 61//29
f 62//30 64//30 63//30
f 62//3 60//3 48//3
f 66//31 42//31 41//31
f 64//32 66//32 65//32
f 49//5 51//5 59//5
f 68//33 70//33 69//33
f 70//34 72//34 71//34
f 72//8 74//8 73//8
f 73//35 74//35 76//35
f 76//36 78//36 77//36
f 78//37 80//37 79//37
f 80//38 82//38 81//38
f 82//2 84//2 83//2
f 84//4 76//4 72//4
f 86//39 68//39 67//39
f 84//40 86//40 85//40
f 73//6 81//6 69//6
f 88//41 90//41 89//41
f 90//42 92//42 91//42
f 92//43 94//43 93//43
f 94//44 96//44 95//44
f 96//45 98//45 97//45
f 98//46 100//46 99//46
f 100//6 102//6 101//6
f 102//47 104//47 103//47
f 104//48 106//48 105//48
f 106//49 108//49 107//49
f 108//50 110//50 109//50
f 108//5 106//5 94//5
f 112//51 88//51 87//51
f 109//52 110//52 112//52
f 12//3 1//3 9//3
f 5//3 9//3 1//3
f 6//3 2//3 9//3
f 3//4 2//4 10//4
f 6//4 10//4 2//4
f 14//5 3//5 11//5
f 7//5 11//5 3//5
f 8//5 4//5 11//5
f 8//6 5//6 13//6
f 1//6 13//6 5//6
f 5//7 8//7 9//7
f 14//8 12//8 3//8
f 15//9 16//9 17//9
f 17//10 18//10 19//10
f 19//11 20//11 21//11
f 21//12 22//12 23//12
f 23//13 24//13 25//13
f 25//14 26//14 27//14
f 27//4 28//4 29//4
f 29//15 30//15 31//15
f 31//16 32//16 33//16
f 33//17 34//17 35//17
f 35//18 36//18 37//18
f 20//2 18//2 16//2
f 16//2 40//2 38//2
f 38//2 36//2 34//2
f 34//2 32//2 30//2
f 30//2 28//2 26//2
f 26//2 24//2 22//2
f 22//2 20//2 26//2
f 16//2 38//2 26//2
f 34//2 30//2 26//2
f 26//2 20//2 16//2
f 39//19 40//19 15//19
f 37//20 38//20 39//20
f 39//8 15//8 37//8
f 17//8 19//8 21//8
f 21//8 23//8 25//8
f 25//8 27//8 29//8
f 29//8 31//8 25//8
f 33//8 35//8 37//8
f 37//8 15//8 17//8
f 17//8 21//8 25//8
f 25//8 31//8 33//8
f 33//8 37//8 25//8
f 41//21 42//21 43//21
f 43//22 44//22 45//22
f 45//23 46//23 47//23
f 47//24 48//24 49//24
f 49//25 50//25 51//25
f 51//26 52//26 53//26
f 53//4 54//4 55//4
f 55//27 56//27 57//27
f 57//28 58//28 59//28
f 59//29 60//29 61//29
f 61//30 62//30 63//30
f 46//3 44//3 42//3
f 42//3 66//3 64//3
f 64//3 62//3 48//3
f 60//3 58//3 56//3
f 56//3 54//3 60//3
f 52//3 50//3 60//3
f 48//3 46//3 42//3
f 42//3 64//3 48//3
f 60//3 54//3 52//3
f 50//3 48//3 60//3
f 65//31 66//31 41//31
f 63//32 64//32 65//32
f 65//5 41//5 63//5
f 43//5 45//5 47//5
f 47//5 49//5 59//5
f 51//5 53//5 55//5
f 55//5 57//5 51//5
f 59//5 61//5 47//5
f 63//5 41//5 43//5
f 43//5 47//5 61//5
f 51//5 57//5 59//5
f 61//5 63//5 43//5
f 67//33 68//33 69//33
f 69//34 70//34 71//34
f 71//8 72//8 73//8
f 75//35 73//35 76//35
f 75//36 76//36 77//36
f 77//37 78//37 79//37
f 79//38 80//38 81//38
f 81//2 82//2 83//2
f 72//4 70//4 84//4
f 68//4 86//4 84//4
f 84//4 82//4 80//4
f 80//4 78//4 84//4
f 76//4 74//4 72//4
f 70//4 68//4 84//4
f 84//4 78//4 76//4
f 85//39 86//39 67//39
f 83//40 84//40 85//40
f 85//6 67//6 69//6
f 69//6 71//6 73//6
f 73//6 75//6 77//6
f 77//6 79//6 73//6
f 81//6 83//6 85//6
f 85//6 69//6 81//6
f 73//6 79//6 81//6
f 87//41 88//41 89//41
f 89//42 90//42 91//42
f 91//43 92//43 93//43
f 93//44 94//44 95//44
f 95//45 96//45 97//45
f 97//46 98//46 99//46
f 99//6 100//6 101//6
f 101//47 102//47 103//47
f 103//48 104//48 105//48
f 105//49 106//49 107//49
f 107//50 108//50 109//50
f 92//5 90//5 88//5
f 88//5 112//5 110//5
f 110//5 108//5 94//5
f 106//5 104//5 98//5
f 102//5 100//5 98//5
f 98//5 96//5 106//5
f 94//5 92//5 88//5
f 88//5 110//5 94//5
f 104//5 102//5 98//5
f 96//5 94//5 106//5
f 111//51 112//51 87//51
f 111//52 109//52 112//52
